<svg width="35" height="35" viewBox="0 0 35 35" preserveAspectRatio="xMidYMid meet" xmlns="http://www.w3.org/2000/svg"><g fill="none" fill-rule="evenodd"><path d="M0 0h35v35H0z"></path><path fill="#c8c8c8" fill-rule="nonzero" d="M6 9v16.286h1.846v.904h1.846v-.904h16.616v.904h1.846v-.904H30V9H6zm1.846 1.81h20.308v12.666H7.846V10.81zm1.846 1.809v9.048h12.923v-9.048H9.692zm15.693 0a.916.916 0 0 0-.923.905c0 .498.414.905.923.905a.916.916 0 0 0 .923-.905.916.916 0 0 0-.923-.905zm-13.847 1.81h9.231v5.428h-9.23V14.43zm13.847 1.81a.916.916 0 0 0-.923.904c0 .498.414.905.923.905a.916.916 0 0 0 .923-.905.916.916 0 0 0-.923-.905z"></path></g></svg>